# xmcd
# 
# Track frame offsets:
#     150
#     14433
#     25806
#     40509
#     51592
#     62889
#     85967
#     100632
#     111602
#     127010
#     155502
#     163894
#     175776
#     181123
#     191813
#     203613
#     212208
#     226833
# 
# Disc length: 3189
# 
# Revision: 1
# Processed by: cddbd v1.5.2PL0 Copyright (c) Steve Scherf et al.
# Submitted via: fre:ac v1.0.27
# 
DISCID=f90c7312
DTITLE=Fats Domino - A Portrait Of
DYEAR=2001
DGENRE=Blues
TTITLE0=Blueberry Hill
TTITLE1=ain't that a shame_please don't leave me
TTITLE2=I'm in the mood for love
TTITLE3=Blue Monday
TTITLE4=That fat man
TTITLE5=Domino Twist
TTITLE6=a_I'm in love again_b_Honey chile
TTITLE7=What a Price
TTITLE8=Jambalaya
TTITLE9=so long_natural born lover_c c rider
TTITLE10=Red sails in the Sunset
TTITLE11=Let the four Winds Blow
TTITLE12=Whole lotta loving
TTITLE13=I'm gonna be a wheel someday
TTITLE14=I want to walk you home
TTITLE15=Be My Guest
TTITLE16=I'm in love again
TTITLE17=Goin Home
EXTD=YEAR: 2001
EXTT0=
EXTT1=
EXTT2=
EXTT3=
EXTT4=
EXTT5=
EXTT6=
EXTT7=
EXTT8=
EXTT9=
EXTT10=
EXTT11=
EXTT12=
EXTT13=
EXTT14=
EXTT15=
EXTT16=
EXTT17=
PLAYORDER=
